# xmcd
#
# Track frame offsets: 
#        150
#        12123
#        35503
#        47597
#        56871
#        68267
#        80354
#        92129
#        103060
#        117606
#        128717
#        141829
#        150989
#        162414
#        172768
#        184716
#        201663
#        210799
#        220394
#        231905
#
# Disc length: 3249 seconds
#
# Revision: 0
# Processed by: cddbd v1.5.2PL0 Copyright (c) Steve Scherf et al.
# Submitted via: ExactAudioCopy v1.0b3
#
DISCID=100caf14
DTITLE=Various Artist - Spirit of Country (Disc1)
DYEAR=2013
DGENRE=Country
TTITLE0=Waylon Jennings - Don't Think Twice It's Alright
TTITLE1=Bob Dylan - House Of The Risin' Sun
TTITLE2=Johnny Cash - I Walk The Line
TTITLE3=Elvis Presley - I'm Gonna Sit Right Down And Cry Oevr You
TTITLE4=Clint Eastwood - Cowboy Wedding Song
TTITLE5=Dolly Parton - Makin' Believe
TTITLE6=Patsy Cline - Walkin' After Midnight
TTITLE7=Roy Orbison - Only The Lonely
TTITLE8=Porter Wagoner - Green Green Grass Of Home
TTITLE9=Johnny Tillotson - Raining In My Heart
TTITLE10=Gene Pitney - Liberty Valance
TTITLE11=Mickey Gilley - Suzie Q
TTITLE12=Eddy Arnold - Kentucky Waltz
TTITLE13=Faron Young - Live Fast, Love Hard, Die Young
TTITLE14=Holly Dunn - There Goes My Heart Again
TTITLE15=Lynn Anderson - Blue Bayou
TTITLE16=Frankie Lane - Rawhide
TTITLE17=Webb Pierce - In The Jailhouse Now
TTITLE18=Kenny Rogers - Me And Bobby McGee
TTITLE19=Jimmy Heap and The Melody Makers - Release Me
EXTD=
EXTT0=
EXTT1=
EXTT2=
EXTT3=
EXTT4=
EXTT5=
EXTT6=
EXTT7=
EXTT8=
EXTT9=
EXTT10=
EXTT11=
EXTT12=
EXTT13=
EXTT14=
EXTT15=
EXTT16=
EXTT17=
EXTT18=
EXTT19=
PLAYORDER=
